<svg width="16" height="15" viewBox="0 0 16 15" fill="none" xmlns="http://www.w3.org/2000/svg">
<path d="M12.6875 6.09375C12.6875 7.43848 12.251 8.68066 11.5156 9.68848L15.2246 13.4004C15.5908 13.7666 15.5908 14.3613 15.2246 14.7275C14.8584 15.0937 14.2637 15.0937 13.8975 14.7275L10.1885 11.0156C9.18067 11.7539 7.93848 12.1875 6.59375 12.1875C3.22754 12.1875 0.5 9.45996 0.5 6.09375C0.5 2.72754 3.22754 0 6.59375 0C9.95996 0 12.6875 2.72754 12.6875 6.09375ZM6.59375 10.3125C7.14777 10.3125 7.69635 10.2034 8.2082 9.99137C8.72004 9.77935 9.18511 9.4686 9.57686 9.07686C9.96861 8.68511 10.2794 8.22004 10.4914 7.70819C10.7034 7.19635 10.8125 6.64776 10.8125 6.09375C10.8125 5.53974 10.7034 4.99115 10.4914 4.4793C10.2794 3.96746 9.96861 3.50239 9.57686 3.11064C9.18511 2.7189 8.72004 2.40814 8.2082 2.19613C7.69635 1.98412 7.14777 1.875 6.59375 1.875C6.03974 1.875 5.49115 1.98412 4.9793 2.19613C4.46746 2.40814 4.00239 2.7189 3.61064 3.11064C3.2189 3.50239 2.90815 3.96746 2.69613 4.4793C2.48412 4.99115 2.375 5.53974 2.375 6.09375C2.375 6.64776 2.48412 7.19635 2.69613 7.70819C2.90815 8.22004 3.2189 8.68511 3.61064 9.07686C4.00239 9.4686 4.46746 9.77935 4.9793 9.99137C5.49115 10.2034 6.03974 10.3125 6.59375 10.3125Z" fill="white" fill-opacity="0.5"/>
</svg>
